<mxfile host="app.diagrams.net" agent="Mozilla/5.0 (Linux; arm_64; Android 14; SM-A525F) AppleWebKit/537.36 (KHTML, like Gecko) Chrome/132.0.6834.2037 YaApp_Android/25.20.1 YaSearchBrowser/25.20.1 BroPP/1.0 SA/3 Mobile Safari/537.36" version="27.1.0">
  <diagram name="Страница — 1" id="iwJGNIqQMTqRXq6XhXT4">
    <mxGraphModel dx="1228" dy="574" grid="1" gridSize="10" guides="1" tooltips="1" connect="1" arrows="1" fold="1" page="1" pageScale="1" pageWidth="827" pageHeight="1169" math="0" shadow="0">
      <root>
        <mxCell id="0" />
        <mxCell id="1" parent="0" />
        <mxCell id="xq-GVfYP8gghDxDSkxqO-1" value="start menu" style="ellipse;whiteSpace=wrap;html=1;aspect=fixed;" vertex="1" parent="1">
          <mxGeometry width="80" height="80" as="geometry" />
        </mxCell>
        <mxCell id="xq-GVfYP8gghDxDSkxqO-2" value="" style="endArrow=block;endFill=1;html=1;edgeStyle=orthogonalEdgeStyle;align=left;verticalAlign=top;rounded=0;" edge="1" parent="1">
          <mxGeometry x="-0.3347" y="-10" relative="1" as="geometry">
            <mxPoint x="80" y="39.5" as="sourcePoint" />
            <mxPoint x="200" y="40" as="targetPoint" />
            <mxPoint as="offset" />
          </mxGeometry>
        </mxCell>
        <mxCell id="xq-GVfYP8gghDxDSkxqO-3" value="1" style="edgeLabel;resizable=0;html=1;align=left;verticalAlign=bottom;" connectable="0" vertex="1" parent="xq-GVfYP8gghDxDSkxqO-2">
          <mxGeometry x="-1" relative="1" as="geometry" />
        </mxCell>
        <mxCell id="xq-GVfYP8gghDxDSkxqO-4" value="selection of operation" style="html=1;whiteSpace=wrap;" vertex="1" parent="1">
          <mxGeometry x="200" y="15" width="110" height="50" as="geometry" />
        </mxCell>
        <mxCell id="xq-GVfYP8gghDxDSkxqO-27" value="" style="edgeStyle=orthogonalEdgeStyle;rounded=0;orthogonalLoop=1;jettySize=auto;html=1;" edge="1" parent="1" source="xq-GVfYP8gghDxDSkxqO-5" target="xq-GVfYP8gghDxDSkxqO-17">
          <mxGeometry relative="1" as="geometry" />
        </mxCell>
        <mxCell id="xq-GVfYP8gghDxDSkxqO-5" value="Create" style="html=1;whiteSpace=wrap;" vertex="1" parent="1">
          <mxGeometry x="40" y="160" width="110" height="50" as="geometry" />
        </mxCell>
        <mxCell id="xq-GVfYP8gghDxDSkxqO-34" value="" style="edgeStyle=orthogonalEdgeStyle;rounded=0;orthogonalLoop=1;jettySize=auto;html=1;" edge="1" parent="1" source="xq-GVfYP8gghDxDSkxqO-6" target="xq-GVfYP8gghDxDSkxqO-31">
          <mxGeometry relative="1" as="geometry" />
        </mxCell>
        <mxCell id="xq-GVfYP8gghDxDSkxqO-6" value="Read&amp;nbsp;" style="html=1;whiteSpace=wrap;" vertex="1" parent="1">
          <mxGeometry x="200" y="160" width="110" height="50" as="geometry" />
        </mxCell>
        <mxCell id="xq-GVfYP8gghDxDSkxqO-44" value="" style="edgeStyle=orthogonalEdgeStyle;rounded=0;orthogonalLoop=1;jettySize=auto;html=1;" edge="1" parent="1" source="xq-GVfYP8gghDxDSkxqO-7" target="xq-GVfYP8gghDxDSkxqO-41">
          <mxGeometry relative="1" as="geometry" />
        </mxCell>
        <mxCell id="xq-GVfYP8gghDxDSkxqO-7" value="update" style="html=1;whiteSpace=wrap;" vertex="1" parent="1">
          <mxGeometry x="360" y="160" width="110" height="50" as="geometry" />
        </mxCell>
        <mxCell id="xq-GVfYP8gghDxDSkxqO-50" value="" style="edgeStyle=orthogonalEdgeStyle;rounded=0;orthogonalLoop=1;jettySize=auto;html=1;" edge="1" parent="1" source="xq-GVfYP8gghDxDSkxqO-8" target="xq-GVfYP8gghDxDSkxqO-48">
          <mxGeometry relative="1" as="geometry" />
        </mxCell>
        <mxCell id="xq-GVfYP8gghDxDSkxqO-8" value="delete" style="html=1;whiteSpace=wrap;" vertex="1" parent="1">
          <mxGeometry x="520" y="160" width="110" height="50" as="geometry" />
        </mxCell>
        <mxCell id="xq-GVfYP8gghDxDSkxqO-9" value="" style="endArrow=block;endFill=1;html=1;edgeStyle=orthogonalEdgeStyle;align=left;verticalAlign=top;rounded=0;entryX=0.5;entryY=0;entryDx=0;entryDy=0;" edge="1" parent="1" target="xq-GVfYP8gghDxDSkxqO-5">
          <mxGeometry x="-1" relative="1" as="geometry">
            <mxPoint x="220" y="65" as="sourcePoint" />
            <mxPoint x="380" y="65" as="targetPoint" />
            <Array as="points">
              <mxPoint x="220" y="90" />
              <mxPoint x="95" y="90" />
            </Array>
          </mxGeometry>
        </mxCell>
        <mxCell id="xq-GVfYP8gghDxDSkxqO-10" value="1" style="edgeLabel;resizable=0;html=1;align=left;verticalAlign=bottom;" connectable="0" vertex="1" parent="xq-GVfYP8gghDxDSkxqO-9">
          <mxGeometry x="-1" relative="1" as="geometry" />
        </mxCell>
        <mxCell id="xq-GVfYP8gghDxDSkxqO-11" value="" style="endArrow=block;endFill=1;html=1;edgeStyle=orthogonalEdgeStyle;align=left;verticalAlign=top;rounded=0;entryX=0.413;entryY=-0.064;entryDx=0;entryDy=0;entryPerimeter=0;" edge="1" parent="1" target="xq-GVfYP8gghDxDSkxqO-6">
          <mxGeometry x="-1" relative="1" as="geometry">
            <mxPoint x="270" y="65" as="sourcePoint" />
            <mxPoint x="430" y="65" as="targetPoint" />
          </mxGeometry>
        </mxCell>
        <mxCell id="xq-GVfYP8gghDxDSkxqO-12" value="1" style="edgeLabel;resizable=0;html=1;align=left;verticalAlign=bottom;" connectable="0" vertex="1" parent="xq-GVfYP8gghDxDSkxqO-11">
          <mxGeometry x="-1" relative="1" as="geometry" />
        </mxCell>
        <mxCell id="xq-GVfYP8gghDxDSkxqO-13" value="" style="endArrow=block;endFill=1;html=1;edgeStyle=orthogonalEdgeStyle;align=left;verticalAlign=top;rounded=0;entryX=0.071;entryY=-0.08;entryDx=0;entryDy=0;entryPerimeter=0;" edge="1" parent="1" target="xq-GVfYP8gghDxDSkxqO-7">
          <mxGeometry x="-1" relative="1" as="geometry">
            <mxPoint x="290" y="65" as="sourcePoint" />
            <mxPoint x="450" y="65" as="targetPoint" />
            <Array as="points">
              <mxPoint x="290" y="110" />
              <mxPoint x="368" y="110" />
            </Array>
          </mxGeometry>
        </mxCell>
        <mxCell id="xq-GVfYP8gghDxDSkxqO-14" value="1" style="edgeLabel;resizable=0;html=1;align=left;verticalAlign=bottom;" connectable="0" vertex="1" parent="xq-GVfYP8gghDxDSkxqO-13">
          <mxGeometry x="-1" relative="1" as="geometry" />
        </mxCell>
        <mxCell id="xq-GVfYP8gghDxDSkxqO-15" value="" style="endArrow=block;endFill=1;html=1;edgeStyle=orthogonalEdgeStyle;align=left;verticalAlign=top;rounded=0;entryX=0.25;entryY=0;entryDx=0;entryDy=0;" edge="1" parent="1" target="xq-GVfYP8gghDxDSkxqO-8">
          <mxGeometry x="-1" relative="1" as="geometry">
            <mxPoint x="300" y="65" as="sourcePoint" />
            <mxPoint x="460" y="65" as="targetPoint" />
            <Array as="points">
              <mxPoint x="300" y="80" />
              <mxPoint x="548" y="80" />
            </Array>
          </mxGeometry>
        </mxCell>
        <mxCell id="xq-GVfYP8gghDxDSkxqO-16" value="1" style="edgeLabel;resizable=0;html=1;align=left;verticalAlign=bottom;" connectable="0" vertex="1" parent="xq-GVfYP8gghDxDSkxqO-15">
          <mxGeometry x="-1" relative="1" as="geometry" />
        </mxCell>
        <mxCell id="xq-GVfYP8gghDxDSkxqO-39" value="" style="edgeStyle=orthogonalEdgeStyle;rounded=0;orthogonalLoop=1;jettySize=auto;html=1;entryX=0.5;entryY=0;entryDx=0;entryDy=0;" edge="1" parent="1" source="xq-GVfYP8gghDxDSkxqO-17" target="xq-GVfYP8gghDxDSkxqO-18">
          <mxGeometry relative="1" as="geometry">
            <Array as="points" />
          </mxGeometry>
        </mxCell>
        <mxCell id="xq-GVfYP8gghDxDSkxqO-17" value="Data entry" style="html=1;whiteSpace=wrap;" vertex="1" parent="1">
          <mxGeometry x="40" y="250" width="110" height="50" as="geometry" />
        </mxCell>
        <mxCell id="xq-GVfYP8gghDxDSkxqO-40" value="" style="edgeStyle=orthogonalEdgeStyle;rounded=0;orthogonalLoop=1;jettySize=auto;html=1;" edge="1" parent="1" source="xq-GVfYP8gghDxDSkxqO-18" target="xq-GVfYP8gghDxDSkxqO-19">
          <mxGeometry relative="1" as="geometry" />
        </mxCell>
        <mxCell id="xq-GVfYP8gghDxDSkxqO-18" value="check format&amp;nbsp;" style="html=1;whiteSpace=wrap;" vertex="1" parent="1">
          <mxGeometry x="40" y="330" width="110" height="50" as="geometry" />
        </mxCell>
        <mxCell id="xq-GVfYP8gghDxDSkxqO-30" value="" style="edgeStyle=orthogonalEdgeStyle;rounded=0;orthogonalLoop=1;jettySize=auto;html=1;entryX=0;entryY=0.5;entryDx=0;entryDy=0;" edge="1" parent="1" source="xq-GVfYP8gghDxDSkxqO-19" target="xq-GVfYP8gghDxDSkxqO-20">
          <mxGeometry relative="1" as="geometry">
            <mxPoint x="95" y="540" as="targetPoint" />
            <Array as="points">
              <mxPoint x="100" y="560" />
            </Array>
          </mxGeometry>
        </mxCell>
        <mxCell id="xq-GVfYP8gghDxDSkxqO-19" value="saving to DB" style="html=1;whiteSpace=wrap;" vertex="1" parent="1">
          <mxGeometry x="40" y="410" width="110" height="50" as="geometry" />
        </mxCell>
        <mxCell id="xq-GVfYP8gghDxDSkxqO-20" value="Notification of succes" style="html=1;whiteSpace=wrap;" vertex="1" parent="1">
          <mxGeometry x="270" y="535" width="110" height="50" as="geometry" />
        </mxCell>
        <mxCell id="xq-GVfYP8gghDxDSkxqO-35" value="" style="edgeStyle=orthogonalEdgeStyle;rounded=0;orthogonalLoop=1;jettySize=auto;html=1;entryX=0.5;entryY=0;entryDx=0;entryDy=0;" edge="1" parent="1" source="xq-GVfYP8gghDxDSkxqO-31" target="xq-GVfYP8gghDxDSkxqO-32">
          <mxGeometry relative="1" as="geometry" />
        </mxCell>
        <mxCell id="xq-GVfYP8gghDxDSkxqO-31" value="data selsction" style="html=1;whiteSpace=wrap;" vertex="1" parent="1">
          <mxGeometry x="200" y="250" width="110" height="50" as="geometry" />
        </mxCell>
        <mxCell id="xq-GVfYP8gghDxDSkxqO-38" value="" style="edgeStyle=orthogonalEdgeStyle;rounded=0;orthogonalLoop=1;jettySize=auto;html=1;" edge="1" parent="1" source="xq-GVfYP8gghDxDSkxqO-32" target="xq-GVfYP8gghDxDSkxqO-33">
          <mxGeometry relative="1" as="geometry" />
        </mxCell>
        <mxCell id="xq-GVfYP8gghDxDSkxqO-32" value="sorting" style="html=1;whiteSpace=wrap;" vertex="1" parent="1">
          <mxGeometry x="200" y="330" width="110" height="50" as="geometry" />
        </mxCell>
        <mxCell id="xq-GVfYP8gghDxDSkxqO-33" value="showing succes" style="html=1;whiteSpace=wrap;" vertex="1" parent="1">
          <mxGeometry x="200" y="410" width="110" height="50" as="geometry" />
        </mxCell>
        <mxCell id="xq-GVfYP8gghDxDSkxqO-45" value="" style="edgeStyle=orthogonalEdgeStyle;rounded=0;orthogonalLoop=1;jettySize=auto;html=1;entryX=0.5;entryY=0;entryDx=0;entryDy=0;" edge="1" parent="1" source="xq-GVfYP8gghDxDSkxqO-41" target="xq-GVfYP8gghDxDSkxqO-42">
          <mxGeometry relative="1" as="geometry" />
        </mxCell>
        <mxCell id="xq-GVfYP8gghDxDSkxqO-41" value="Selecting entry" style="html=1;whiteSpace=wrap;" vertex="1" parent="1">
          <mxGeometry x="360" y="250" width="110" height="50" as="geometry" />
        </mxCell>
        <mxCell id="xq-GVfYP8gghDxDSkxqO-46" value="" style="edgeStyle=orthogonalEdgeStyle;rounded=0;orthogonalLoop=1;jettySize=auto;html=1;" edge="1" parent="1" source="xq-GVfYP8gghDxDSkxqO-42" target="xq-GVfYP8gghDxDSkxqO-43">
          <mxGeometry relative="1" as="geometry" />
        </mxCell>
        <mxCell id="xq-GVfYP8gghDxDSkxqO-42" value="changing data" style="html=1;whiteSpace=wrap;" vertex="1" parent="1">
          <mxGeometry x="360" y="330" width="110" height="50" as="geometry" />
        </mxCell>
        <mxCell id="xq-GVfYP8gghDxDSkxqO-47" value="" style="edgeStyle=orthogonalEdgeStyle;rounded=0;orthogonalLoop=1;jettySize=auto;html=1;" edge="1" parent="1" source="xq-GVfYP8gghDxDSkxqO-43" target="xq-GVfYP8gghDxDSkxqO-20">
          <mxGeometry relative="1" as="geometry" />
        </mxCell>
        <mxCell id="xq-GVfYP8gghDxDSkxqO-43" value="saving results" style="html=1;whiteSpace=wrap;" vertex="1" parent="1">
          <mxGeometry x="360" y="410" width="110" height="50" as="geometry" />
        </mxCell>
        <mxCell id="xq-GVfYP8gghDxDSkxqO-51" value="" style="edgeStyle=orthogonalEdgeStyle;rounded=0;orthogonalLoop=1;jettySize=auto;html=1;" edge="1" parent="1" source="xq-GVfYP8gghDxDSkxqO-48" target="xq-GVfYP8gghDxDSkxqO-49">
          <mxGeometry relative="1" as="geometry" />
        </mxCell>
        <mxCell id="xq-GVfYP8gghDxDSkxqO-48" value="Selecting entry" style="html=1;whiteSpace=wrap;" vertex="1" parent="1">
          <mxGeometry x="520" y="250" width="110" height="50" as="geometry" />
        </mxCell>
        <mxCell id="xq-GVfYP8gghDxDSkxqO-52" value="" style="edgeStyle=orthogonalEdgeStyle;rounded=0;orthogonalLoop=1;jettySize=auto;html=1;entryX=1;entryY=0.5;entryDx=0;entryDy=0;" edge="1" parent="1" source="xq-GVfYP8gghDxDSkxqO-49" target="xq-GVfYP8gghDxDSkxqO-20">
          <mxGeometry relative="1" as="geometry">
            <Array as="points">
              <mxPoint x="575" y="560" />
            </Array>
          </mxGeometry>
        </mxCell>
        <mxCell id="xq-GVfYP8gghDxDSkxqO-49" value="deleting" style="html=1;whiteSpace=wrap;" vertex="1" parent="1">
          <mxGeometry x="520" y="330" width="110" height="50" as="geometry" />
        </mxCell>
      </root>
    </mxGraphModel>
  </diagram>
</mxfile>
